<svg xmlns="http://www.w3.org/2000/svg" xmlns:xlink="http://www.w3.org/1999/xlink" version="1.1" x="0px" y="0px" viewBox="0 0 100 125" enable-background="new 0 0 100 100" xml:space="preserve"><circle cx="24.97" cy="50" r="4.737"/><path d="M24.97,55.486c-3.025,0-5.487-2.461-5.487-5.486c0-3.026,2.461-5.487,5.487-5.487s5.487,2.461,5.487,5.487  C30.457,53.025,27.995,55.486,24.97,55.486z M24.97,46.013c-2.198,0-3.987,1.789-3.987,3.987c0,2.198,1.789,3.986,3.987,3.986  s3.987-1.788,3.987-3.986C28.957,47.802,27.168,46.013,24.97,46.013z"/><circle cx="50" cy="50.001" r="4.737"/><path d="M50,55.486c-3.025,0-5.487-2.461-5.487-5.485c0-3.026,2.461-5.487,5.487-5.487c3.026,0,5.487,2.461,5.487,5.487  C55.487,53.025,53.026,55.486,50,55.486z M50,46.014c-2.198,0-3.987,1.789-3.987,3.987c0,2.197,1.789,3.985,3.987,3.985  c2.199,0,3.987-1.788,3.987-3.985C53.987,47.802,52.199,46.014,50,46.014z"/><circle cx="75.096" cy="50.001" r="4.737"/><path d="M75.097,55.486c-3.025,0-5.487-2.461-5.487-5.485c0-3.026,2.462-5.487,5.487-5.487s5.486,2.461,5.486,5.487  C80.583,53.025,78.122,55.486,75.097,55.486z M75.097,46.014c-2.198,0-3.987,1.789-3.987,3.987c0,2.197,1.789,3.985,3.987,3.985  s3.986-1.788,3.986-3.985C79.083,47.803,77.295,46.014,75.097,46.014z"/><text x="0" y="115" fill="#000000" font-size="5px" font-weight="bold" font-family="'Helvetica Neue', Helvetica, Arial-Unicode, Arial, Sans-serif">Created by Denovo Agency</text><text x="0" y="120" fill="#000000" font-size="5px" font-weight="bold" font-family="'Helvetica Neue', Helvetica, Arial-Unicode, Arial, Sans-serif">from the Noun Project</text></svg>